<?xml version="1.0" encoding="UTF-8" standalone="no"?>
<svg
   viewBox="0 0 500 500"
   version="1.1"
   id="svg54"
   sodipodi:docname="freezing_rain.svg"
   inkscape:version="1.2.1 (9c6d41e4, 2022-07-14)"
   xmlns:inkscape="http://www.inkscape.org/namespaces/inkscape"
   xmlns:sodipodi="http://sodipodi.sourceforge.net/DTD/sodipodi-0.dtd"
   xmlns="http://www.w3.org/2000/svg"
   xmlns:svg="http://www.w3.org/2000/svg">
  <sodipodi:namedview
     id="namedview56"
     pagecolor="#ffffff"
     bordercolor="#000000"
     borderopacity="0.25"
     inkscape:showpageshadow="2"
     inkscape:pageopacity="0.0"
     inkscape:pagecheckerboard="0"
     inkscape:deskcolor="#d1d1d1"
     showgrid="false"
     inkscape:zoom="0.88406349"
     inkscape:cx="182.67919"
     inkscape:cy="257.90003"
     inkscape:window-width="1309"
     inkscape:window-height="456"
     inkscape:window-x="132"
     inkscape:window-y="394"
     inkscape:window-maximized="0"
     inkscape:current-layer="图层_1" />
  <defs
     id="defs21">
    <style
       id="style19">.cls-1{fill:#fff;}.cls-2{fill:#231815;}.cls-3{fill:#2ea7e0;}</style>
  </defs>
  <title
     id="title23" />
  <g
     data-name="图层 1"
     id="图层_1">
    <path
       class="cls-1"
       d="M325.57,311.22a51.75,51.75,0,0,0,10.34-102.46,73.71,73.71,0,0,0-131.81-19,62.24,62.24,0,1,0-19.18,121.44"
       id="path25" />
    <path
       class="cls-2"
       d="M325.57,318.72a59.9,59.9,0,0,0,58.79-52.34c3.7-30-17-58.47-46.46-64.86l5.24,5.24c-9.07-28.39-33.17-50.81-62.81-56A82.4,82.4,0,0,0,197.62,186l8.47-3.45c-31.4-9.69-66.35,3.77-82.26,32.77-15.16,27.65-9.62,63.37,13.66,84.79a70.91,70.91,0,0,0,47.42,18.61c9.66.11,9.66-14.89,0-15-24.5-.27-46.36-16.6-52.84-40.4a55.22,55.22,0,0,1,25.59-61.82c13.58-7.83,29.54-9.09,44.43-4.49,3.34,1,6.63-.74,8.47-3.45,14.64-21.54,41.42-33.14,67.15-28.1a67.05,67.05,0,0,1,50.95,45.29,7.54,7.54,0,0,0,5.24,5.24c22.53,4.89,38.5,25.75,35.61,49-2.74,22.09-22,38.41-44,38.7-9.64.13-9.67,15.13,0,15Z"
       id="path27" />
    <path
       class="cls-3"
       d="m 353.7872,344.89427 -1.28715,-0.74344 0.87105,-0.50765 c 2.31354,-1.3454 0.22192,-4.94332 -2.09994,-3.60623 l -2.34406,1.36204 c -0.18308,0.10542 -0.38836,0.2136 -0.60474,0.32734 l -0.83221,-0.47991 v -3.99738 l 0.83221,-0.48268 c 0.21083,0.11096 0.41888,0.21915 0.60474,0.32734 l 2.34406,1.36205 c 2.31909,1.34818 4.41625,-2.24697 2.09994,-3.60624 l -0.87105,-0.50765 0.83221,-0.47713 0.51875,-0.2996 c 1.87247,-1.08187 0.86549,-3.63675 -0.81834,-3.88364 a 1.8114419,1.8114419 0 0 0 -0.43275,0 2.1249073,2.1249073 0 0 0 -0.85163,0.2774 l -1.32321,0.76564 q 0,-0.49933 0,-0.99866 c 0,-0.0638 0,-0.1276 0,-0.18863 -0.17477,-2.19148 -3.27058,-2.40508 -3.99738,-0.63248 a 2.1276813,2.1276813 0 0 0 -0.15535,0.83221 v 2.71023 c 0,0.20528 0,0.43552 -0.0194,0.67131 v 0.0277 l -1.06523,0.61584 -1.71713,-0.99033 c -0.2774,-0.16922 -0.62138,-0.39114 -0.97368,-0.62138 -0.17754,-0.11651 -0.3634,-0.2358 -0.55481,-0.34953 v -1.13735 c 0.21083,-0.13316 0.41611,-0.26354 0.60474,-0.37172 l 2.34961,-1.34818 a 2.2747049,2.2747049 0 0 0 0.40223,-0.29128 c 1.63945,-1.4952 -0.32734,-4.54941 -2.49663,-3.30109 l -0.85717,0.491 v -1.45082 c 0,-2.67694 -4.16105,-2.68248 -4.16105,0 v 1.47579 l -0.85995,-0.5021 c -2.00285,-1.14845 -3.83648,1.3565 -2.82119,2.9266 a 2.0611046,2.0611046 0 0 0 0.72125,0.66854 l 2.34961,1.34818 c 0.18863,0.10819 0.39391,0.23857 0.60473,0.37172 v 1.17896 c -0.491,0.30515 -0.95704,0.63248 -1.35095,0.85995 l -1.86137,1.07633 -1.09297,-0.63248 c 0,-0.24412 -0.0194,-0.47991 -0.0194,-0.69906 v -2.71023 c 0,-2.67693 -4.16105,-2.68248 -4.16105,0 q 0,0.49933 0,0.99866 l -1.32321,-0.76564 c -2.32464,-1.33985 -4.4218,2.25252 -2.09994,3.60624 l 1.34263,0.77673 -0.87104,0.50765 c -2.31355,1.3454 -0.22193,4.94332 2.09994,3.60624 l 2.34405,-1.36205 c 0.18309,-0.10541 0.38837,-0.2136 0.60474,-0.32734 l 0.88769,0.5132 v 3.94744 l -0.88769,0.5132 c -0.21082,-0.11096 -0.41888,-0.21915 -0.60474,-0.32734 l -2.34405,-1.36204 c -2.31909,-1.34818 -4.41626,2.24696 -2.09994,3.60624 l 0.87104,0.50764 -1.28715,0.74344 c -2.31909,1.33986 -0.22469,4.935 2.09994,3.60624 l 1.27051,-0.73234 q 0,0.49932 0,0.99865 c 0,2.67694 4.16104,2.68249 4.16104,0 v -2.71023 c 0,-0.2136 0,-0.45217 0.0194,-0.69905 l 0.65467,-0.37727 2.18317,1.25941 c 0.42442,0.24411 0.93207,0.60751 1.47023,0.93762 v 0.66299 c -0.21082,0.13316 -0.4161,0.26354 -0.60474,0.37172 l -2.3496,1.34818 c -2.32186,1.33154 -0.22747,4.92945 2.09994,3.60624 l 0.85718,-0.491 v 1.53958 c 0,2.67694 4.16104,2.68249 4.16104,0 V 352.717 l 0.85718,0.491 c 2.32741,1.33431 4.43845,-2.25806 2.09994,-3.60624 l -2.34961,-1.34818 c -0.18863,-0.10818 -0.39391,-0.23856 -0.60473,-0.37172 v -0.6408 c 0.51319,-0.31624 0.99865,-0.66022 1.40643,-0.89601 l 2.27193,-1.31212 0.6297,0.3634 c 0,0.24412 0.0194,0.47991 0.0194,0.69906 v 2.71023 c 0,2.67693 4.16105,2.68248 4.16105,0 q 0,-0.49933 0,-0.99866 l 1.2705,0.73235 c 2.29968,1.28992 4.39684,-2.30522 2.07775,-3.64508 z m -13.90344,-1.40921 -0.0277,-0.0166 -1.5701,-0.90711 -0.51042,-0.29404 -1.33708,-0.77118 v -3.97796 l 0.20528,-0.11929 1.1318,-0.65467 0.94872,-0.55481 1.1318,-0.65467 0.0277,-0.0166 1.13181,0.65467 0.92098,0.53261 1.15954,0.66855 0.23302,0.13315 v 3.97796 l -1.38702,0.80447 -0.48268,0.2774 z"
       id="path12"
       style="fill:#2ea7e0;stroke-width:0.277403" />
    <line
       class="cls-3"
       x1="212.97"
       x2="205.6"
       y1="300.26"
       y2="281.06"
       id="line29" />
    <path
       class="cls-3"
       d="M220.2,298.27l-7.37-19.2c-1.45-3.78-5-6.39-9.23-5.24-3.61,1-6.7,5.42-5.24,9.23l7.37,19.2c1.45,3.78,5,6.39,9.23,5.24,3.61-1,6.7-5.42,5.24-9.23Z"
       id="path31" />
    <line
       class="cls-3"
       x1="229.44"
       x2="222.06"
       y1="343.14"
       y2="323.94"
       id="line33" />
    <path
       class="cls-3"
       d="M236.67,341.15l-7.37-19.2c-1.45-3.78-5-6.39-9.23-5.24-3.61,1-6.7,5.42-5.24,9.23l7.37,19.2c1.45,3.78,5,6.39,9.23,5.24,3.61-1,6.7-5.42,5.24-9.23Z"
       id="path35" />
    <line
       class="cls-3"
       x1="250.93"
       x2="243.56"
       y1="300.26"
       y2="281.06"
       id="line37" />
    <path
       class="cls-3"
       d="M258.16,298.27l-7.37-19.2c-1.45-3.78-5-6.39-9.23-5.24-3.61,1-6.7,5.42-5.24,9.23l7.37,19.2c1.45,3.78,5,6.39,9.23,5.24,3.61-1,6.7-5.42,5.24-9.23Z"
       id="path39" />
    <line
       class="cls-3"
       x1="267.4"
       x2="260.02"
       y1="343.14"
       y2="323.94"
       id="line41" />
    <path
       class="cls-3"
       d="M274.63,341.15l-7.37-19.2c-1.45-3.78-5-6.39-9.23-5.24-3.61,1-6.7,5.42-5.24,9.23l7.37,19.2c1.45,3.78,5,6.39,9.23,5.24,3.61-1,6.7-5.42,5.24-9.23Z"
       id="path43" />
    <line
       class="cls-3"
       x1="288.89"
       x2="281.52"
       y1="300.26"
       y2="281.06"
       id="line45" />
    <path
       class="cls-3"
       d="M296.12,298.27l-7.37-19.2c-1.45-3.78-5-6.39-9.23-5.24-3.61,1-6.7,5.42-5.24,9.23l7.37,19.2c1.45,3.78,5,6.39,9.23,5.24,3.61-1,6.7-5.42,5.24-9.23Z"
       id="path47" />
    <line
       class="cls-3"
       x1="305.36"
       x2="297.99"
       y1="343.14"
       y2="323.94"
       id="line49" />
    <path
       class="cls-3"
       d="M312.59,341.15l-7.37-19.2c-1.45-3.78-5-6.39-9.23-5.24-3.61,1-6.7,5.42-5.24,9.23l7.37,19.2c1.45,3.78,5,6.39,9.23,5.24,3.61-1,6.7-5.42,5.24-9.23Z"
       id="path51" />
  </g>
</svg>
